<svg xmlns="http://www.w3.org/2000/svg" viewBox="0 0 192 192">
  <defs>
    <linearGradient id="sky" x1="0%" y1="0%" x2="0%" y2="100%">
      <stop offset="0%" style="stop-color:#2E1C47"/>
      <stop offset="33%" style="stop-color:#6B2D5C"/>
      <stop offset="66%" style="stop-color:#D84A5A"/>
      <stop offset="100%" style="stop-color:#FF9E79"/>
    </linearGradient>
  </defs>
  <rect width="192" height="192" rx="32" fill="url(#sky)"/>
  <circle cx="96" cy="145" r="25" fill="#FFFDE7" opacity="0.8"/>
  <circle cx="96" cy="145" r="40" fill="#FFEB3B" opacity="0.25"/>
  <g fill="#160E22">
    <ellipse cx="96" cy="68" rx="10" ry="10"/>
    <ellipse cx="96" cy="68" rx="12" ry="12" fill="none" stroke="#160E22" stroke-width="3"/>
    <path d="M82 82 L110 82 L107 100 L85 100 Z"/>
    <path d="M80 100 L86 100 L82 145 L76 145 Z"/>
    <path d="M106 100 L112 100 L116 145 L100 145 Z"/>
    <path d="M68 85 L82 82 L78 95 L68 98 Z"/>
    <path d="M124 85 L110 82 L114 95 L124 98 Z"/>
  </g>
  <text x="96" y="32" text-anchor="middle" fill="white" font-family="Arial Black, sans-serif" font-size="14" font-weight="900">I AM a OverComer</text>
</svg>
